HIERARCHY
ROOT root
{
	OFFSET 0.00 0.00 0.00
	CHANNELS 6 Xposition Yposition Zposition Zrotation Xrotation Yrotation
	JOINT lowerback
	{
		OFFSET 0 0 0
		CHANNELS 6 Xposition Yposition Zposition Zrotation Xrotation Yrotation
		JOINT upperback
		{
			OFFSET -0.214371 12.3768 -1.12219
			CHANNELS 6 Xposition Yposition Zposition Zrotation Xrotation Yrotation
			JOINT thorax
			{
				OFFSET -0.00137213 12.3873 0.296195
				CHANNELS 6 Xposition Yposition Zposition Zrotation Xrotation Yrotation
				JOINT lowerneck
				{
					OFFSET 0.0883157 12.5016 0.82912
					CHANNELS 6 Xposition Yposition Zposition Zrotation Xrotation Yrotation
					JOINT upperneck
					{
						OFFSET -1 10.1794 0.943522
						CHANNELS 6 Xposition Yposition Zposition Zrotation Xrotation Yrotation
						JOINT head
						{
							OFFSET 0.667525 10.2797 -1.57149
							CHANNELS 6 Xposition Yposition Zposition Zrotation Xrotation Yrotation
							End Site
							{
								OFFSET 0 0 0
							}
						}
					}
				}
				JOINT lclavicle
				{
					OFFSET 0.0883157 12.5016 0.82912
					CHANNELS 6 Xposition Yposition Zposition Zrotation Xrotation Yrotation
					JOINT lhumerus
					{
						OFFSET 20.61 4.45006 1.43784
						CHANNELS 6 Xposition Yposition Zposition Zrotation Xrotation Yrotation
						JOINT lradius
						{
							OFFSET 0 -30.3438 0
							CHANNELS 6 Xposition Yposition Zposition Zrotation Xrotation Yrotation
							JOINT lwrist
							{
								OFFSET 0 -18.964 0
								CHANNELS 6 Xposition Yposition Zposition Zrotation Xrotation Yrotation
								JOINT lhand
								{
									OFFSET 0 -9.48199 0
									CHANNELS 6 Xposition Yposition Zposition Zrotation Xrotation Yrotation
									JOINT lfingers
									{
										OFFSET 0 -3.17138 0
										CHANNELS 6 Xposition Yposition Zposition Zrotation Xrotation Yrotation
										End Site
										{
											OFFSET 0 -2.55685 0
										}
									}
								}
								JOINT lthumb
								{
									OFFSET 0 -9.48199 0
									CHANNELS 6 Xposition Yposition Zposition Zrotation Xrotation Yrotation
									End Site
									{
										OFFSET 0 -3.67114 0
									}
								}
							}
						}
					}
				}
				JOINT rclavicle
				{
					OFFSET 0.0883157 12.5016 0.82912
					CHANNELS 6 Xposition Yposition Zposition Zrotation Xrotation Yrotation
					JOINT rhumerus
					{
						OFFSET -20.61 4.45 1.44
						CHANNELS 6 Xposition Yposition Zposition Zrotation Xrotation Yrotation
						JOINT rradius
						{
							OFFSET 0 -29.5102 0
							CHANNELS 6 Xposition Yposition Zposition Zrotation Xrotation Yrotation
							JOINT rwrist
							{
								OFFSET 0 -19.2342 0
								CHANNELS 6 Xposition Yposition Zposition Zrotation Xrotation Yrotation
								JOINT rhand
								{
									OFFSET 0 -9.61712 0
									CHANNELS 6 Xposition Yposition Zposition Zrotation Xrotation Yrotation
									JOINT rfingers
									{
										OFFSET 0 -3.29215 0
										CHANNELS 6 Xposition Yposition Zposition Zrotation Xrotation Yrotation
										End Site
										{
											OFFSET 0 -2.557 0
										}
									}
								}
								JOINT rthumb
								{
									OFFSET 0 -9.61712 0
									CHANNELS 6 Xposition Yposition Zposition Zrotation Xrotation Yrotation
									End Site
									{
										OFFSET 0 -3.671 0
									}
								}
							}
						}
					}
				}
			}
		}
	}
	JOINT rfemur
	{
		OFFSET -8.46272 -9.62775 4.76248
		CHANNELS 6 Xposition Yposition Zposition Zrotation Xrotation Yrotation
		JOINT rtibia
		{
			OFFSET 1.00552e-005 -38.0331 0
			CHANNELS 6 Xposition Yposition Zposition Zrotation Xrotation Yrotation
			JOINT rfoot
			{
				OFFSET 1.14428e-005 -43.2815 0
				CHANNELS 6 Xposition Yposition Zposition Zrotation Xrotation Yrotation
				JOINT rtoes
				{
					OFFSET 0 -14.1868 -3.08763
					CHANNELS 6 Xposition Yposition Zposition Zrotation Xrotation Yrotation
					End Site
					{
						OFFSET 0 -7.27332 0
					}
				}
			}
		}
	}
	JOINT lfemur
	{
		OFFSET 9.10607 -9.62778 4.76249
		CHANNELS 6 Xposition Yposition Zposition Zrotation Xrotation Yrotation
		JOINT ltibia
		{
			OFFSET -1.01399e-005 -38.3535 0
			CHANNELS 6 Xposition Yposition Zposition Zrotation Xrotation Yrotation
			JOINT lfoot
			{
				OFFSET -1.12937e-005 -42.7176 0
				CHANNELS 6 Xposition Yposition Zposition Zrotation Xrotation Yrotation
				JOINT ltoes
				{
					OFFSET 0 -13.9965 -2.83857
					CHANNELS 6 Xposition Yposition Zposition Zrotation Xrotation Yrotation
					End Site
					{
						OFFSET 0 -7.16348 0
					}
				}
			}
		}
	}
}
MOTION
Frames: 9
Frame Time: 0.00833333
6.47466	91.4643	47.9587	-3.29824	4.33937	-10.662	0 0 0 0.513452	5.05214	-1.36357	-0.214371 12.3768 -1.12219 1.01407	5.0923	-1.94485	-0.00137213 12.3873 0.296195 0.740166	2.43361	-1.02856	0.0883157 12.5016 0.82912 7.2966	1.97937	5.24857	-1 10.1794 0.943522 -7.98226	24.5227	7.53721	0.667525 10.2797 -1.57149 -2.93202	7.70038	3.21971	0.0883157 12.5016 0.82912 -15	0	-0	20.61 4.45006 1.43784 32.489	-46.0935	171.358	0 -30.3438 0 -0	37.69	-0	0 -18.964 0 -0	0	-89.1187	0 -9.48199 0 1.22245	4.37968	-2.58917e-014	0 -3.17138 0 -0	7.12502	-0	0 -9.48199 0 25	15	-1.36605e-015	0.0883157 12.5016 0.82912 15	0	-0	-20.61 4.45 1.44 -25.5468	3.11979	166.175	0 -29.5102 0 -0	45.862	-0	0 -19.2342 0 7.90495e-016	-3.2355e-015	117.459	0 -9.61712 0 1.22	4.38	-0	0 -3.29215 0 -0	7.12502	-0	0 -9.61712 0 25	15	-7.97034e-015	-8.46272 -9.62775 4.76248 -11.3998	-2.54429	13.5473	1.00552e-005 -38.0331 0 -0	22.0811	-0	1.14428e-005 -43.2815 0 -77.5648	-54.1826	-79.8616	0 -14.1868 -3.08763 -0	-14.8942	-0	9.10607 -9.62778 4.76249 10.2316	-18.5149	5.58927	-1.01399e-005 -38.3535 0 -0	34.1422	-0	-1.12937e-005 -42.7176 0 53.7317	-74.2489	54.7712	0 -13.9965 -2.83857 -0	-17.6971	-0
6.76494	91.6787	48.4133	-3.3581	4.35109	-10.9093	0 0 0 0.591567	4.97527	-1.28778	-0.214371 12.3768 -1.12219 0.825036	5.01772	-1.83353	-0.00137213 12.3873 0.296195 0.502512	2.38783	-0.965214	0.0883157 12.5016 0.82912 7.22832	1.98468	5.29388	-1 10.1794 0.943522 -8.12998	24.4079	7.63599	0.667525 10.2797 -1.57149 -2.95627	7.66903	3.25186	0.0883157 12.5016 0.82912 -15	0	-0	20.61 4.45006 1.43784 32.6403	-45.8601	171.326	0 -30.3438 0 -0	37.8141	-0	0 -18.964 0 -0	0	-89.0605	0 -9.48199 0 1.22245	4.37968	-2.58917e-014	0 -3.17138 0 -0	7.12502	-0	0 -9.48199 0 25	15	-1.36605e-015	0.0883157 12.5016 0.82912 15	0	-0	-20.61 4.45 1.44 -24.958	3.63021	165.717	0 -29.5102 0 -0	44.6946	-0	0 -19.2342 0 7.96265e-016	-3.24658e-015	117.561	0 -9.61712 0 1.22	4.38	-0	0 -3.29215 0 -0	7.12502	-0	0 -9.61712 0 25	15	-7.97034e-015	-8.46272 -9.62775 4.76248 -11.1841	-3.38154	13.2417	1.00552e-005 -38.0331 0 -0	23.4981	-0	1.14428e-005 -43.2815 0 -76.6483	-54.053	-79.1229	0 -14.1868 -3.08763 -0	-13.6607	-0	9.10607 -9.62778 4.76249 10.0543	-17.6735	5.74297	-1.01399e-005 -38.3535 0 -0	33.2511	-0	-1.12937e-005 -42.7176 0 53.4486	-74.2443	54.492	0 -13.9965 -2.83857 -0	-17.4963	-0
7.04586	91.9029	48.8565	-3.43289	4.36627	-11.1544	0 0 0 0.676535	4.91036	-1.21814	-0.214371 12.3768 -1.12219 0.658638	4.94682	-1.73128	-0.00137213 12.3873 0.296195 0.284638	2.34056	-0.906917	0.0883157 12.5016 0.82912 7.13625	1.97624	5.34698	-1 10.1794 0.943522 -8.30498	24.2753	7.7517	0.667525 10.2797 -1.57149 -2.98274	7.63529	3.28855	0.0883157 12.5016 0.82912 -15	0	-0	20.61 4.45006 1.43784 32.7948	-45.6375	171.363	0 -30.3438 0 -0	37.9372	-0	0 -18.964 0 -0	0	-89.0081	0 -9.48199 0 1.22245	4.37968	-2.58917e-014	0 -3.17138 0 -0	7.12502	-0	0 -9.48199 0 25	15	-1.36605e-015	0.0883157 12.5016 0.82912 15	0	-0	-20.61 4.45 1.44 -24.4301	4.11563	165.289	0 -29.5102 0 -0	43.4973	-0	0 -19.2342 0 7.99952e-016	-3.25363e-015	117.626	0 -9.61712 0 1.22	4.38	-0	0 -3.29215 0 -0	7.12502	-0	0 -9.61712 0 25	15	-7.97034e-015	-8.46272 -9.62775 4.76248 -10.9446	-4.2867	12.9208	1.00552e-005 -38.0331 0 -0	25.0138	-0	1.14428e-005 -43.2815 0 -75.5182	-54.0386	-78.1915	0 -14.1868 -3.08763 -0	-12.5532	-0	9.10607 -9.62778 4.76249 9.86126	-16.8246	5.7962	-1.01399e-005 -38.3535 0 -0	32.3263	-0	-1.12937e-005 -42.7176 0 53.2255	-74.1541	54.2836	0 -13.9965 -2.83857 -0	-17.2504	-0
7.31562	92.131	49.2866	-3.51533	4.38337	-11.3983	0 0 0 0.751668	4.85823	-1.15433	-0.214371 12.3768 -1.12219 0.514603	4.88059	-1.63817	-0.00137213 12.3873 0.296195 0.0955444	2.2928	-0.854191	0.0883157 12.5016 0.82912 7.02291	1.95281	5.40695	-1 10.1794 0.943522 -8.50176	24.1207	7.88153	0.667525 10.2797 -1.57149 -3.01055	7.59778	3.32935	0.0883157 12.5016 0.82912 -15	0	-0	20.61 4.45006 1.43784 32.9571	-45.4315	171.467	0 -30.3438 0 -0	38.0609	-0	0 -18.964 0 -0	0	-88.9635	0 -9.48199 0 1.22245	4.37968	-2.58917e-014	0 -3.17138 0 -0	7.12502	-0	0 -9.48199 0 25	15	-1.36605e-015	0.0883157 12.5016 0.82912 15	0	-0	-20.61 4.45 1.44 -23.9694	4.57337	164.894	0 -29.5102 0 -0	42.2796	-0	0 -19.2342 0 8.02965e-016	-3.25938e-015	117.679	0 -9.61712 0 1.22	4.38	-0	0 -3.29215 0 -0	7.12502	-0	0 -9.61712 0 25	15	-7.97034e-015	-8.46272 -9.62775 4.76248 -10.6847	-5.25921	12.5936	1.00552e-005 -38.0331 0 -0	26.6402	-0	1.14428e-005 -43.2815 0 -74.2455	-54.1378	-77.121	0 -14.1868 -3.08763 -0	-11.6265	-0	9.10607 -9.62778 4.76249 9.65389	-15.9731	5.76427	-1.01399e-005 -38.3535 0 -0	31.3755	-0	-1.12937e-005 -42.7176 0 53.0659	-73.9848	54.1488	0 -13.9965 -2.83857 -0	-16.9648	-0
7.57196	92.3573	49.7029	-3.59826	4.40087	-11.6411	0 0 0 0.802213	4.81904	-1.09613	-0.214371 12.3768 -1.12219 0.39134	4.81978	-1.55433	-0.00137213 12.3873 0.296195 -0.0582159	2.24554	-0.807469	0.0883157 12.5016 0.82912 6.89193	1.914	5.47274	-1 10.1794 0.943522 -8.71406	23.941	8.02226	0.667525 10.2797 -1.57149 -3.03886	7.55536	3.37378	0.0883157 12.5016 0.82912 -15	0	-0	20.61 4.45006 1.43784 33.1333	-45.2475	171.635	0 -30.3438 0 -0	38.1864	-0	0 -18.964 0 -0	0	-88.9287	0 -9.48199 0 1.22245	4.37968	-2.58917e-014	0 -3.17138 0 -0	7.12502	-0	0 -9.48199 0 25	15	-1.36605e-015	0.0883157 12.5016 0.82912 15	0	-0	-20.61 4.45 1.44 -23.5782	5.00098	164.531	0 -29.5102 0 -0	41.0499	-0	0 -19.2342 0 8.07122e-016	-3.2673e-015	117.752	0 -9.61712 0 1.22	4.38	-0	0 -3.29215 0 -0	7.12502	-0	0 -9.61712 0 25	15	-7.97034e-015	-8.46272 -9.62775 4.76248 -10.407	-6.29786	12.2661	1.00552e-005 -38.0331 0 -0	28.3882	-0	1.14428e-005 -43.2815 0 -72.9148	-54.3434	-75.9774	0 -14.1868 -3.08763 -0	-10.9279	-0	9.10607 -9.62778 4.76249 9.43325	-15.1218	5.66464	-1.01399e-005 -38.3535 0 -0	30.403	-0	-1.12937e-005 -42.7176 0 52.9659	-73.7459	54.0828	0 -13.9965 -2.83857 -0	-16.6463	-0
7.81439	92.5779	50.1054	-3.67542	4.41726	-11.8826	0 0 0 0.816465	4.7923	-1.04354	-0.214371 12.3768 -1.12219 0.286227	4.76492	-1.48	-0.00137213 12.3873 0.296195 -0.172862	2.19967	-0.767139	0.0883157 12.5016 0.82912 6.74778	1.86022	5.54321	-1 10.1794 0.943522 -8.93533	23.7345	8.17055	0.667525 10.2797 -1.57149 -3.06687	7.50724	3.4213	0.0883157 12.5016 0.82912 -15	0	-0	20.61 4.45006 1.43784 33.3301	-45.0898	171.865	0 -30.3438 0 -0	38.3152	-0	0 -18.964 0 -0	0	-88.9051	0 -9.48199 0 1.22245	4.37968	-2.58917e-014	0 -3.17138 0 -0	7.12502	-0	0 -9.48199 0 25	15	-1.36605e-015	0.0883157 12.5016 0.82912 15	0	-0	-20.61 4.45 1.44 -23.2551	5.39633	164.197	0 -29.5102 0 -0	39.8154	-0	0 -19.2342 0 8.14151e-016	-3.28062e-015	117.875	0 -9.61712 0 1.22	4.38	-0	0 -3.29215 0 -0	7.12502	-0	0 -9.61712 0 25	15	-7.97034e-015	-8.46272 -9.62775 4.76248 -10.1128	-7.40026	11.9416	1.00552e-005 -38.0331 0 -0	30.2665	-0	1.14428e-005 -43.2815 0 -71.6196	-54.6452	-74.8364	0 -14.1868 -3.08763 -0	-10.494	-0	9.10607 -9.62778 4.76249 9.20051	-14.2718	5.51557	-1.01399e-005 -38.3535 0 -0	29.4109	-0	-1.12937e-005 -42.7176 0 52.9144	-73.4499	54.0733	0 -13.9965 -2.83857 -0	-16.3027	-0
8.04409	92.788	50.4922	-3.74205	4.43104	-12.1213	0 0 0 0.786528	4.77704	-0.99682	-0.214371 12.3768 -1.12219 0.19593	4.71627	-1.41566	-0.00137213 12.3873 0.296195 -0.247475	2.15594	-0.733552	0.0883157 12.5016 0.82912 6.59555	1.79263	5.6172	-1 10.1794 0.943522 -9.15904	23.5013	8.32304	0.667525 10.2797 -1.57149 -3.09395	7.45313	3.47133	0.0883157 12.5016 0.82912 -15	0	-0	20.61 4.45006 1.43784 33.5545	-44.9614	172.154	0 -30.3438 0 -0	38.4484	-0	0 -18.964 0 -0	0	-88.8932	0 -9.48199 0 1.22245	4.37968	-2.58917e-014	0 -3.17138 0 -0	7.12502	-0	0 -9.48199 0 25	15	-1.36605e-015	0.0883157 12.5016 0.82912 15	0	-0	-20.61 4.45 1.44 -22.9954	5.75775	163.886	0 -29.5102 0 -0	38.5825	-0	0 -19.2342 0 8.25755e-016	-3.30247e-015	118.077	0 -9.61712 0 1.22	4.38	-0	0 -3.29215 0 -0	7.12502	-0	0 -9.61712 0 25	15	-7.97034e-015	-8.46272 -9.62775 4.76248 -9.80258	-8.56255	11.62	1.00552e-005 -38.0331 0 -0	32.2805	-0	1.14428e-005 -43.2815 0 -70.4542	-55.0312	-73.7783	0 -14.1868 -3.08763 -0	-10.349	-0	9.10607 -9.62778 4.76249 8.95727	-13.4227	5.3351	-1.01399e-005 -38.3535 0 -0	28.3992	-0	-1.12937e-005 -42.7176 0 52.8945	-73.1107	54.1021	0 -13.9965 -2.83857 -0	-15.9431	-0
8.26194	92.9844	50.8678	-3.79528	4.44074	-12.3553	0 0 0 0.708676	4.77188	-0.956439	-0.214371 12.3768 -1.12219 0.116719	4.6739	-1.36192	-0.00137213 12.3873 0.296195 -0.283869	2.11501	-0.707005	0.0883157 12.5016 0.82912 6.44071	1.71306	5.69351	-1 10.1794 0.943522 -9.37911	23.2434	8.47645	0.667525 10.2797 -1.57149 -3.1196	7.39319	3.52325	0.0883157 12.5016 0.82912 -15	0	-0	20.61 4.45006 1.43784 33.8129	-44.8639	172.495	0 -30.3438 0 -0	38.5871	-0	0 -18.964 0 -0	0	-88.8922	0 -9.48199 0 1.22245	4.37968	-2.58917e-014	0 -3.17138 0 -0	7.12502	-0	0 -9.48199 0 25	15	-1.36605e-015	0.0883157 12.5016 0.82912 15	0	-0	-20.61 4.45 1.44 -22.7915	6.08417	163.586	0 -29.5102 0 -0	37.3567	-0	0 -19.2342 0 8.43539e-016	-3.33559e-015	118.384	0 -9.61712 0 1.22	4.38	-0	0 -3.29215 0 -0	7.12502	-0	0 -9.61712 0 25	15	-7.97034e-015	-8.46272 -9.62775 4.76248 -9.47639	-9.77935	11.2986	1.00552e-005 -38.0331 0 -0	34.4308	-0	1.14428e-005 -43.2815 0 -69.5061	-55.4889	-72.8812	0 -14.1868 -3.08763 -0	-10.5031	-0	9.10607 -9.62778 4.76249 8.70585	-12.5729	5.14024	-1.01399e-005 -38.3535 0 -0	27.3672	-0	-1.12937e-005 -42.7176 0 52.8861	-72.7435	54.1473	0 -13.9965 -2.83857 -0	-15.5775	-0
8.46902	93.1645	51.2305	-3.83427	4.44501	-12.5819	0 0 0 0.583308	4.77512	-0.923008	-0.214371 12.3768 -1.12219 0.0447767	4.63769	-1.31943	-0.00137213 12.3873 0.296195 -0.286245	2.07737	-0.687698	0.0883157 12.5016 0.82912 6.28881	1.62389	5.77095	-1 10.1794 0.943522 -9.59015	22.9643	8.62777	0.667525 10.2797 -1.57149 -3.14351	7.32809	3.57637	0.0883157 12.5016 0.82912 -15	0	-0	20.61 4.45006 1.43784 34.1108	-44.7975	172.886	0 -30.3438 0 -0	38.7322	-0	0 -18.964 0 -0	0	-88.9002	0 -9.48199 0 1.22245	4.37968	-2.58917e-014	0 -3.17138 0 -0	7.12502	-0	0 -9.48199 0 25	15	-1.36605e-015	0.0883157 12.5016 0.82912 15	0	-0	-20.61 4.45 1.44 -22.6341	6.37549	163.287	0 -29.5102 0 -0	36.1434	-0	0 -19.2342 0 8.68687e-016	-3.38172e-015	118.813	0 -9.61712 0 1.22	4.38	-0	0 -3.29215 0 -0	7.12502	-0	0 -9.61712 0 25	15	-7.97034e-015	-8.46272 -9.62775 4.76248 -9.13398	-11.0438	10.9727	1.00552e-005 -38.0331 0 -0	36.7135	-0	1.14428e-005 -43.2815 0 -68.8464	-56.0054	-72.2125	0 -14.1868 -3.08763 -0	-10.9538	-0	9.10607 -9.62778 4.76249 8.44961	-11.7201	4.94661	-1.01399e-005 -38.3535 0 -0	26.3141	-0	-1.12937e-005 -42.7176 0 52.867	-72.3641	54.1851	0 -13.9965 -2.83857 -0	-15.2167	-0
